<?xml version="1.0" standalone="no"?>
<!DOCTYPE svg PUBLIC "-//W3C//DTD SVG 20010904//EN"
 "http://www.w3.org/TR/2001/REC-SVG-20010904/DTD/svg10.dtd">
<svg version="1.0" xmlns="http://www.w3.org/2000/svg"
 width="1600.000000pt" height="1600.000000pt" viewBox="0 0 1600.000000 1600.000000"
 preserveAspectRatio="xMidYMid meet">
<metadata>
Created by potrace 1.14, written by Peter Selinger 2001-2017
</metadata>
<g transform="translate(0.000000,1600.000000) scale(0.100000,-0.100000)"
fill="#000000" stroke="none">
<path d="M5210 15820 c0 -5 4 -10 9 -10 6 0 13 5 16 10 3 6 -1 10 -9 10 -9 0
-16 -4 -16 -10z"/>
<path d="M5172 15809 c2 -6 8 -10 13 -10 5 0 11 4 13 10 2 6 -4 11 -13 11 -9
0 -15 -5 -13 -11z"/>
<path d="M5250 15805 c0 -7 8 -12 18 -10 9 2 20 4 25 4 19 2 4 19 -18 19 -14
0 -25 -6 -25 -13z"/>
<path d="M5686 15803 c5 -17 -7 -18 -143 -18 -142 -1 -281 -9 -333 -20 -14 -3
-41 -8 -60 -10 -19 -2 -65 -15 -102 -28 -37 -14 -69 -22 -72 -19 -4 3 -6 1 -6
-5 0 -5 -13 -10 -30 -11 -16 0 -39 -10 -51 -21 -22 -20 -79 -45 -79 -34 0 3
-9 -2 -21 -13 -12 -10 -24 -19 -28 -18 -11 1 -109 -45 -115 -54 -11 -19 -90
-54 -94 -43 -7 22 -32 11 -32 -14 0 -14 -4 -24 -9 -22 -5 1 -8 -1 -8 -5 3 -11
-65 -58 -74 -52 -5 3 -9 -2 -9 -10 0 -15 -11 -20 -37 -17 -7 1 -13 -7 -13 -19
0 -11 -3 -20 -8 -20 -4 0 -18 -10 -32 -22 -14 -13 -34 -30 -45 -38 -17 -13
-18 -13 -10 0 5 8 -6 0 -23 -19 -18 -18 -32 -37 -32 -42 0 -4 -7 -6 -15 -2
-10 3 -15 0 -13 -8 2 -8 -4 -13 -14 -13 -10 1 -16 -2 -13 -6 3 -4 -2 -10 -10
-14 -8 -3 -15 -12 -15 -21 0 -8 -5 -15 -11 -15 -6 0 -9 -7 -5 -15 3 -8 2 -15
-3 -15 -10 0 -60 -50 -85 -85 -12 -17 -25 -25 -36 -22 -33 8 -42 -8 -49 -85
-1 -5 -6 -8 -12 -8 -6 0 -9 7 -6 14 4 10 1 13 -9 9 -7 -3 -14 0 -14 6 0 13
-10 14 -29 2 -12 -8 -12 -12 2 -25 9 -9 19 -17 22 -16 21 1 25 -2 25 -19 0
-10 -7 -21 -15 -25 -8 -3 -15 -12 -15 -21 0 -8 -5 -14 -12 -13 -7 2 -13 -1
-14 -7 -5 -27 -17 -55 -24 -55 -5 0 -12 -9 -15 -20 -4 -11 -11 -17 -17 -14 -7
5 -9 1 -5 -8 3 -9 3 -19 -1 -23 -4 -3 -7 -14 -7 -22 0 -9 -6 -18 -14 -21 -10
-3 -12 4 -9 31 3 28 0 35 -13 34 -13 -1 -16 -13 -16 -67 0 -36 2 -53 4 -37 3
15 8 27 13 27 13 0 17 -32 7 -65 -11 -36 -17 -135 -8 -135 3 0 7 -20 8 -45 4
-89 7 -115 13 -115 3 0 7 -14 8 -31 2 -25 0 -30 -11 -21 -10 8 -13 7 -14 -6
-1 -9 -2 -22 -3 -27 -5 -22 1 -35 15 -35 8 0 14 3 14 8 -3 18 2 32 12 32 6 0
9 -9 6 -20 -3 -11 -2 -20 2 -20 4 0 13 -11 19 -25 6 -14 8 -25 4 -25 -14 0 -7
-75 8 -87 12 -9 16 -8 21 4 4 11 12 2 27 -31 13 -26 20 -51 17 -57 -4 -5 1
-12 9 -15 8 -3 18 -15 22 -26 3 -11 8 -17 11 -14 10 10 35 -24 29 -40 -3 -9
-2 -12 4 -9 6 4 33 -17 60 -45 28 -29 50 -49 50 -45 0 3 7 -1 16 -9 8 -9 12
-20 9 -26 -3 -5 -1 -10 5 -10 6 0 9 -4 5 -9 -3 -5 0 -13 6 -17 8 -4 9 -3 5 4
-4 7 -1 12 9 12 8 0 18 -7 21 -15 4 -8 11 -15 18 -15 6 -1 22 -14 36 -30 13
-17 30 -30 37 -30 17 0 84 -66 75 -74 -3 -4 1 -4 11 0 10 3 17 1 17 -6 0 -6 5
-8 10 -5 6 4 9 1 8 -7 -2 -8 5 -12 20 -10 17 3 22 -2 22 -19 0 -18 2 -19 15
-9 10 9 15 9 15 1 0 -6 6 -11 13 -11 23 -1 69 -50 64 -69 -2 -11 4 -26 14 -35
25 -21 41 -20 37 2 -1 9 2 18 7 19 17 4 46 -8 40 -17 -3 -4 5 -11 18 -15 27
-9 23 -7 75 -31 23 -10 45 -27 48 -36 3 -10 13 -18 23 -18 10 0 21 -3 25 -7 4
-5 11 -8 14 -8 21 0 71 -29 65 -38 -4 -6 -1 -7 7 -2 8 5 18 1 26 -10 8 -10 17
-16 20 -12 4 3 33 -7 65 -24 32 -16 62 -30 66 -30 5 -1 19 -6 33 -12 14 -6 27
-11 30 -11 26 -5 27 -19 3 -61 -13 -25 -28 -43 -33 -40 -5 3 -22 -8 -38 -25
-17 -16 -35 -30 -40 -30 -12 0 -33 -56 -25 -64 4 -3 1 -6 -6 -6 -7 0 -9 -4 -6
-10 3 -5 0 -7 -9 -4 -10 4 -20 -6 -31 -32 -9 -21 -19 -34 -23 -29 -7 10 -62
-38 -61 -53 1 -4 -14 -12 -33 -19 -34 -13 -108 -10 -203 9 -66 12 -96 13 -119
3 -14 -6 -17 -5 -12 3 7 12 -19 6 -39 -9 -5 -4 -32 -10 -60 -14 -27 -4 -54
-11 -60 -14 -23 -16 -86 -32 -96 -25 -8 4 -9 3 -5 -4 7 -11 -7 -16 -41 -15 -7
1 -10 -3 -7 -8 5 -9 -7 -12 -41 -10 -15 1 -17 0 -7 -7 11 -8 11 -10 -2 -15 -8
-3 -17 -1 -20 6 -2 7 -5 4 -5 -5 -1 -12 -9 -18 -27 -18 -14 0 -23 -4 -20 -9 9
-14 -20 -21 -35 -8 -11 10 -11 9 -1 -4 10 -13 8 -19 -10 -35 -16 -14 -19 -14
-10 -2 12 14 10 16 -8 11 -11 -3 -18 -8 -15 -11 6 -7 -62 -32 -87 -32 -10 0
-18 -4 -18 -10 0 -5 -7 -7 -16 -3 -9 3 -21 -2 -30 -15 -9 -13 -23 -19 -39 -17
-14 1 -28 -1 -31 -6 -2 -4 -12 -5 -20 -2 -9 3 -19 2 -23 -3 -21 -30 -77 -47
-157 -48 -59 -1 -85 -5 -89 -14 -3 -7 -9 -10 -15 -7 -5 3 -14 -5 -19 -18 -10
-26 -57 -61 -71 -52 -5 3 -12 0 -15 -6 -4 -5 -13 -8 -20 -5 -7 2 -16 -3 -20
-12 -5 -14 -7 -14 -15 -2 -7 10 -10 11 -10 3 0 -7 -6 -13 -14 -13 -8 0 -16 -5
-18 -12 -4 -10 -23 -17 -55 -20 -7 -1 -10 -5 -8 -9 3 -4 -9 -12 -27 -18 -24
-9 -34 -8 -40 1 -6 10 -8 10 -8 -1 0 -8 -6 -11 -16 -7 -8 3 -13 2 -11 -2 5 -7
-23 -38 -33 -36 -3 1 -14 -2 -25 -7 -11 -4 -16 -8 -12 -8 4 -1 3 -10 -3 -21
-6 -11 -15 -18 -19 -15 -5 3 -12 -2 -15 -11 -4 -9 -9 -14 -13 -11 -3 4 -12 2
-19 -4 -8 -6 -21 -9 -29 -5 -9 3 -14 2 -11 -3 7 -11 -37 -41 -60 -41 -11 0
-14 -5 -10 -16 5 -13 1 -15 -19 -12 -13 3 -22 1 -19 -3 3 -5 0 -9 -7 -9 -7 0
-25 -12 -40 -26 -26 -24 -43 -32 -82 -33 -10 -1 -17 -7 -16 -13 4 -30 -2 -40
-17 -34 -10 4 -18 0 -21 -12 -5 -21 -57 -55 -67 -45 -4 4 -5 1 -2 -7 5 -15
-62 -70 -85 -70 -5 0 -7 -4 -4 -10 8 -13 -46 -61 -63 -55 -7 3 -10 0 -7 -6 4
-5 -7 -15 -25 -22 -25 -10 -30 -16 -25 -34 4 -18 0 -24 -19 -29 -15 -3 -30
-20 -41 -45 -10 -21 -24 -39 -32 -39 -7 0 -13 -3 -13 -8 0 -4 -14 -13 -30 -20
-18 -8 -30 -21 -30 -32 0 -28 -11 -51 -21 -44 -8 5 -13 -9 -10 -29 1 -4 -10
-12 -23 -18 -16 -8 -23 -18 -21 -31 2 -10 0 -16 -6 -13 -5 4 -9 -4 -9 -15 0
-15 -5 -20 -14 -17 -9 4 -12 0 -9 -12 3 -11 -5 -22 -21 -31 -14 -7 -26 -18
-26 -23 0 -5 -9 -20 -20 -34 -11 -14 -17 -30 -13 -36 4 -6 0 -8 -11 -4 -10 4
-15 3 -11 -3 7 -12 -16 -80 -27 -80 -4 0 -4 -7 -1 -17 4 -11 3 -14 -6 -9 -8 6
-11 2 -9 -10 2 -13 -2 -18 -14 -16 -12 2 -15 -3 -11 -18 4 -14 -3 -29 -21 -47
-28 -27 -33 -43 -15 -43 8 0 8 -5 -1 -15 -7 -8 -9 -15 -5 -15 4 0 2 -7 -5 -15
-7 -8 -16 -12 -21 -9 -5 3 -9 -2 -9 -11 0 -10 -6 -15 -13 -12 -15 5 -18 -44
-3 -54 5 -4 -1 -10 -13 -14 -12 -3 -19 -11 -16 -16 4 -5 1 -9 -5 -9 -6 0 -8
-4 -5 -10 3 -5 1 -10 -5 -10 -7 0 -10 -6 -7 -14 3 -8 -4 -25 -16 -38 -12 -13
-22 -32 -22 -42 0 -11 -6 -21 -14 -24 -9 -3 -11 0 -6 8 5 8 4 11 -3 6 -6 -3
-9 -15 -7 -25 2 -13 -5 -23 -24 -30 -18 -8 -27 -20 -29 -38 -1 -15 -7 -30 -13
-34 -7 -4 -8 -12 -5 -18 4 -6 0 -14 -8 -17 -9 -3 -13 -11 -9 -17 3 -5 -2 -16
-12 -24 -11 -7 -16 -13 -12 -13 4 0 2 -10 -5 -22 -7 -13 -11 -27 -10 -31 1 -5
-2 -6 -8 -2 -7 4 -20 -14 -32 -44 -12 -28 -28 -51 -35 -51 -7 0 -13 -5 -13
-11 0 -5 -5 -7 -12 -3 -6 4 -8 3 -5 -3 4 -6 0 -29 -7 -51 -8 -22 -12 -43 -9
-46 4 -3 -1 -6 -9 -6 -17 0 -28 -20 -28 -51 0 -10 -5 -19 -11 -19 -18 0 -35
-24 -37 -53 -3 -40 -30 -99 -42 -92 -5 3 -7 0 -4 -9 8 -22 -24 -66 -44 -59
-13 5 -14 3 -5 -7 7 -8 8 -19 3 -29 -5 -9 -11 -32 -15 -52 -3 -19 -16 -51 -30
-69 -14 -19 -25 -44 -25 -55 0 -27 -20 -85 -29 -85 -4 0 -8 -11 -9 -26 -1 -14
-7 -34 -12 -45 -6 -10 -7 -19 -3 -19 4 0 0 -5 -10 -11 -9 -6 -15 -14 -12 -20
4 -5 2 -9 -2 -9 -5 0 -10 -12 -11 -27 -1 -15 -6 -29 -11 -33 -5 -3 -13 -18
-16 -33 -4 -15 -11 -27 -17 -27 -5 0 -7 -4 -4 -9 4 -5 0 -12 -6 -14 -10 -4 -9
-6 1 -6 11 -1 10 -6 -4 -21 -10 -11 -13 -20 -7 -20 8 0 10 -13 7 -35 -5 -40
-13 -57 -23 -51 -4 2 -6 -14 -4 -36 3 -28 1 -39 -7 -34 -7 4 -11 0 -11 -11 0
-10 -8 -29 -17 -42 -12 -18 -13 -22 -2 -16 11 7 12 6 3 -6 -14 -17 -14 -49 -1
-49 5 0 3 -7 -4 -16 -7 -9 -15 -33 -16 -53 -5 -57 -6 -61 -15 -61 -5 0 -6 -6
-1 -12 4 -7 6 -26 5 -43 -4 -43 -34 -139 -46 -147 -7 -5 -7 -8 2 -8 10 0 10
-4 0 -20 -12 -18 -13 -19 -20 -2 -4 11 -7 6 -8 -18 -4 -181 -6 -192 -23 -201
-12 -7 -16 -23 -16 -62 0 -52 -5 -99 -16 -147 -22 -96 -23 -645 -1 -667 3 -3
1 -14 -4 -24 -7 -12 -6 -20 1 -24 6 -4 8 -13 5 -21 -3 -7 -1 -16 3 -18 5 -3 6
-16 4 -28 -3 -16 6 -34 26 -57 24 -26 28 -38 21 -52 -7 -12 -7 -20 0 -24 6 -4
8 -10 6 -14 -3 -4 6 -15 20 -25 13 -11 24 -26 24 -35 0 -9 7 -29 15 -45 9 -16
13 -36 11 -43 -3 -7 1 -13 9 -13 8 0 15 -9 15 -20 0 -11 5 -20 10 -20 6 0 10
-7 10 -15 0 -8 5 -15 11 -15 6 0 18 -7 26 -16 14 -13 14 -17 2 -25 -8 -5 -9
-9 -2 -9 13 0 12 -18 -1 -39 -6 -10 -5 -12 2 -7 14 9 55 -12 47 -24 -3 -4 1
-15 9 -23 8 -8 12 -17 9 -21 -4 -3 5 -6 19 -6 25 0 44 -23 33 -41 -4 -5 0 -6
8 -3 9 3 26 -13 47 -46 18 -29 44 -56 57 -61 12 -4 23 -14 23 -21 0 -7 9 -19
20 -26 11 -7 20 -20 20 -29 0 -9 3 -14 6 -10 10 10 36 -22 30 -38 -3 -9 0 -12
9 -9 21 8 52 -13 59 -41 4 -16 13 -25 26 -25 11 0 27 -11 36 -25 9 -13 24 -27
35 -30 11 -4 17 -11 14 -16 -3 -5 1 -6 10 -3 8 4 22 1 30 -6 8 -7 15 -9 15 -6
0 4 12 -1 28 -12 15 -11 38 -23 52 -27 39 -12 82 -46 76 -61 -3 -9 7 -16 32
-21 20 -4 40 -8 45 -9 4 -1 13 -2 21 -3 7 0 16 -10 19 -21 3 -13 11 -18 20
-14 8 3 21 -1 28 -9 8 -8 31 -17 51 -21 21 -4 44 -14 53 -22 8 -9 15 -12 15
-7 0 4 4 2 8 -4 4 -7 24 -15 45 -17 38 -5 87 -32 87 -48 0 -5 4 -6 10 -3 5 3
10 1 10 -4 0 -6 11 -11 25 -11 15 0 25 -6 25 -14 0 -8 7 -12 17 -10 10 3 36
-4 58 -16 21 -11 47 -20 57 -20 10 0 18 -4 18 -8 0 -4 12 -7 28 -6 15 1 41 -9
59 -23 26 -19 37 -22 52 -13 14 7 20 7 23 -2 2 -6 11 -13 19 -14 7 -2 32 -8
54 -14 22 -6 60 -15 85 -20 64 -12 80 -20 80 -39 0 -12 10 -16 38 -16 20 -1
46 -5 57 -10 11 -4 29 -9 40 -10 47 -4 94 -18 89 -26 -3 -5 2 -6 10 -3 9 4 18
0 21 -9 4 -9 17 -14 36 -12 16 1 29 0 29 -4 0 -4 10 -7 22 -8 11 -1 24 -6 27
-10 3 -4 23 -9 44 -10 21 -1 44 -6 50 -11 7 -6 26 -11 42 -13 17 -2 35 -7 42
-12 7 -5 18 -5 24 -1 8 5 9 3 4 -6 -6 -9 -4 -12 6 -8 8 3 23 0 34 -8 10 -8 29
-14 42 -14 16 0 21 -4 17 -15 -5 -11 -2 -13 9 -9 9 3 22 2 29 -2 7 -5 29 -9
48 -10 19 0 42 -4 50 -7 8 -4 26 -8 39 -10 13 -2 29 -10 35 -19 9 -13 59 -27
104 -30 7 -1 11 -6 9 -13 -3 -6 4 -11 14 -11 11 0 19 4 19 9 0 5 9 5 20 2 12
-4 37 -9 57 -11 42 -5 66 -21 56 -38 -4 -6 0 -6 9 2 13 10 19 10 32 -3 9 -9
16 -14 16 -11 0 4 15 0 34 -8 19 -8 37 -11 41 -8 3 4 9 1 13 -5 9 -14 48 -23
117 -29 49 -3 58 -5 102 -19 12 -4 25 -6 29 -5 4 1 10 -3 13 -8 3 -6 29 -11
56 -13 28 -1 78 -13 112 -25 35 -12 63 -19 63 -16 0 4 4 1 9 -7 5 -7 30 -14
57 -16 48 -2 119 -26 109 -36 -3 -3 5 -5 18 -4 12 1 25 -3 29 -9 5 -8 8 -7 8
2 0 6 5 12 11 12 5 0 8 -4 5 -9 -3 -4 6 -7 19 -5 15 1 25 -3 25 -11 0 -7 10
-12 23 -12 75 -1 96 -5 118 -23 13 -11 29 -23 34 -28 6 -5 16 -7 23 -4 6 2 12
-1 12 -6 0 -5 12 -7 28 -5 15 2 35 5 44 7 10 1 21 5 24 9 4 3 15 2 25 -3 9 -6
35 -12 56 -15 77 -10 108 -18 123 -29 8 -7 31 -12 50 -12 19 1 38 -3 41 -7 3
-4 22 -9 42 -10 22 -1 37 -7 37 -14 0 -9 16 -13 46 -13 37 0 45 -3 40 -15 -4
-12 -2 -14 10 -7 19 11 64 4 64 -10 0 -5 6 -8 13 -5 6 2 28 -4 47 -13 19 -10
53 -18 75 -19 67 -2 119 -17 109 -33 -4 -6 1 -6 14 1 14 7 23 8 27 1 3 -5 17
-10 31 -10 13 0 24 -5 24 -10 0 -6 6 -10 13 -9 31 4 68 -2 62 -10 -3 -5 6 -22
20 -37 14 -15 25 -23 25 -18 0 5 5 2 10 -6 5 -8 10 -10 10 -5 0 6 16 11 35 11
19 0 35 -4 35 -8 0 -4 7 -8 15 -8 16 0 74 -36 86 -54 4 -5 11 -6 17 -2 5 3 13
-1 16 -10 3 -9 12 -14 19 -11 12 4 72 -33 112 -69 28 -26 68 -84 58 -84 -5 0
-9 -9 -10 -20 -1 -11 2 -20 8 -20 5 0 9 -7 9 -15 0 -8 5 -15 10 -15 6 0 10 -9
10 -20 0 -11 5 -20 11 -20 5 0 7 -4 4 -10 -3 -5 5 -15 19 -22 14 -6 26 -17 26
-25 0 -7 5 -13 11 -13 6 0 8 -21 3 -62 -4 -35 -8 -86 -8 -115 -1 -28 -4 -55
-8 -59 -5 -4 -8 -2 -8 4 0 7 -5 12 -11 12 -5 0 -7 -5 -4 -10 4 -6 2 -17 -5
-25 -6 -7 -7 -15 -3 -18 26 -16 -15 -227 -44 -227 -8 0 -11 -5 -8 -10 8 -13
-16 -80 -30 -80 -5 0 -5 -4 2 -8 10 -6 9 -14 -2 -36 -9 -16 -18 -46 -21 -67
-4 -22 -10 -39 -14 -39 -5 0 -7 -8 -6 -17 2 -10 -4 -40 -11 -68 -14 -49 -20
-77 -22 -102 -1 -6 -7 -18 -14 -25 -19 -19 -33 -52 -36 -86 0 -7 -5 -11 -9 -8
-5 3 -9 -1 -9 -9 0 -8 4 -15 8 -15 10 0 0 -69 -15 -100 -6 -14 -18 -25 -26
-25 -8 0 -15 -7 -15 -15 0 -8 -4 -18 -9 -21 -5 -4 -5 -13 0 -20 15 -25 12 -78
-6 -94 -11 -10 -16 -24 -13 -36 4 -13 -2 -25 -16 -35 -11 -8 -21 -22 -21 -30
0 -8 -4 -13 -10 -9 -5 3 -5 -7 2 -25 8 -23 7 -38 -1 -57 -6 -13 -9 -29 -6 -34
4 -5 2 -9 -4 -9 -5 0 -8 -9 -6 -20 2 -11 -1 -20 -7 -20 -6 0 -9 -3 -5 -6 3 -4
-1 -20 -9 -36 -8 -16 -17 -42 -19 -56 -1 -15 -4 -27 -5 -27 -1 0 -3 -8 -5 -18
-2 -10 -12 -28 -22 -40 -12 -14 -13 -18 -3 -12 12 6 13 5 3 -6 -7 -7 -13 -30
-13 -52 0 -23 -4 -36 -10 -32 -6 4 -13 -7 -16 -24 -4 -17 -9 -31 -13 -31 -3 0
-6 -20 -5 -45 0 -25 -2 -45 -6 -45 -4 0 -7 -14 -8 -31 0 -17 -5 -36 -11 -43
-5 -6 -9 -21 -7 -31 3 -18 -5 -50 -21 -95 -3 -8 -7 -22 -9 -30 -2 -8 -6 -31
-10 -50 -19 -90 -34 -140 -43 -140 -5 0 -7 -10 -3 -22 3 -14 2 -19 -6 -14 -8
5 -12 0 -12 -13 0 -10 -6 -21 -12 -24 -10 -3 -10 -9 -2 -23 8 -15 8 -22 -1
-31 -7 -7 -16 -9 -21 -5 -4 4 -3 0 1 -8 11 -17 14 -51 5 -45 -3 2 -7 -15 -7
-38 -1 -24 -9 -46 -18 -53 -8 -6 -15 -23 -15 -37 0 -14 -7 -28 -16 -31 -11 -4
-13 -10 -6 -19 5 -6 8 -21 6 -32 -3 -11 -6 -43 -8 -71 -3 -48 -17 -104 -38
-149 -5 -11 -10 -35 -11 -52 -1 -18 -5 -33 -8 -33 -4 0 -7 -10 -7 -22 -1 -27
-9 -81 -17 -123 -3 -16 -14 -37 -25 -45 -13 -11 -17 -26 -15 -55 1 -22 -1 -45
-6 -51 -5 -6 -11 -28 -15 -50 -3 -21 -7 -43 -7 -49 -1 -5 -4 -12 -7 -15 -3 -3
-14 -40 -24 -82 -12 -47 -24 -78 -32 -78 -8 0 -12 -12 -12 -32 1 -34 0 -39
-27 -143 -9 -33 -17 -67 -17 -75 0 -8 -5 -20 -10 -26 -4 -6 -11 -31 -13 -55
-6 -49 -9 -67 -18 -89 -14 -37 -27 -88 -31 -119 -2 -18 -8 -36 -13 -40 -5 -3
-10 -21 -10 -38 -2 -52 -2 -55 -13 -48 -5 3 -10 -1 -10 -9 0 -9 5 -16 10 -16
7 0 7 -6 1 -17 -5 -10 -11 -35 -14 -55 l-5 -38 4809 0 4809 0 2 28 c4 64 3
142 -3 142 -3 0 -2 28 1 63 9 99 1 662 -10 662 -1 0 -9 66 -14 120 -1 17 2 38
7 49 5 10 5 16 0 13 -5 -3 -8 9 -8 26 1 18 0 36 -3 41 -2 4 -4 38 -4 75 0 36
-4 73 -9 82 -4 9 -6 19 -2 22 8 9 11 79 4 97 -3 8 -13 15 -21 15 -16 0 -18 12
-23 155 -1 52 -6 100 -9 105 -3 6 -8 24 -9 40 -2 17 -8 33 -12 36 -5 3 -1 14
9 24 13 13 15 21 7 34 -5 9 -11 47 -12 85 -1 39 -6 75 -12 82 -5 7 -12 34 -14
61 -1 26 -6 59 -9 73 -3 14 -8 59 -11 100 -4 41 -8 87 -9 102 -2 15 1 25 6 22
4 -3 8 0 8 5 0 6 -3 11 -7 11 -5 0 -9 21 -10 46 -1 26 -5 50 -10 53 -7 5 -13
38 -15 81 -1 20 4 30 15 30 9 0 14 12 15 29 0 23 -3 28 -15 24 -11 -4 -14 0
-11 15 1 11 -5 29 -15 40 -10 11 -20 38 -22 60 -2 34 0 40 14 35 11 -4 9 1 -6
16 -20 19 -28 39 -24 63 0 4 -4 19 -9 34 -8 21 -8 25 3 21 8 -3 14 1 14 9 0 7
-4 11 -9 8 -9 -6 -12 17 -10 95 1 29 -2 51 -5 47 -12 -11 -34 34 -31 63 1 16
-4 37 -12 47 -13 16 -13 17 0 9 13 -7 13 -6 2 7 -9 11 -10 18 -2 23 6 4 7 13
2 23 -5 9 -8 49 -7 89 0 39 -3 69 -7 67 -4 -3 -8 -2 -9 3 -3 35 -12 59 -24 66
-8 4 -15 22 -15 40 0 18 -6 42 -14 53 -8 11 -17 42 -21 69 -4 28 -14 57 -22
66 -8 10 -16 41 -17 70 -2 30 -5 55 -6 57 -1 1 -3 10 -4 20 0 11 -7 26 -15 35
-11 14 -11 17 0 17 10 0 10 3 1 12 -7 7 -12 21 -12 32 0 11 -7 28 -16 37 -9
10 -16 30 -17 43 0 14 -3 23 -7 21 -9 -5 -25 42 -21 63 1 6 -2 12 -7 12 -4 0
-9 16 -10 37 -3 42 -10 56 -23 48 -5 -4 -14 6 -20 22 -7 20 -7 29 1 31 7 3 5
8 -4 16 -9 6 -16 27 -18 46 -2 41 -13 68 -40 93 -16 16 -17 21 -6 35 10 12 10
14 1 8 -9 -4 -13 -1 -13 10 0 9 -9 33 -19 53 -24 44 -34 71 -36 92 -4 30 -30
79 -42 79 -7 0 -13 6 -14 13 -1 12 -3 27 -10 57 -2 8 -13 23 -23 32 -10 10
-16 18 -12 18 4 0 -4 15 -18 33 -15 19 -26 44 -26 55 0 12 -5 22 -11 22 -5 0
-7 5 -3 12 5 8 2 9 -9 5 -12 -5 -19 1 -24 21 -3 15 -11 32 -17 39 -31 35 -36
44 -36 61 0 10 -8 27 -18 38 -10 11 -27 32 -36 47 -10 15 -25 27 -32 27 -8 0
-14 9 -14 19 0 11 -21 40 -46 65 -26 27 -44 52 -41 60 5 12 -29 55 -39 49 -9
-5 -33 10 -29 17 3 5 -3 11 -14 15 -10 3 -26 20 -35 38 -23 46 -41 67 -58 67
-17 0 -98 72 -98 87 0 5 -9 18 -20 28 -11 10 -18 21 -15 24 2 4 -5 8 -17 8
-11 1 -28 11 -38 22 -9 12 -23 21 -31 21 -10 0 -10 3 -1 12 17 17 15 24 -8 25
-11 1 -20 -2 -20 -8 0 -15 -36 -10 -50 6 -9 11 -9 15 -1 15 8 0 8 4 -1 14 -7
8 -16 12 -19 10 -4 -2 -22 2 -40 9 -19 7 -44 13 -57 12 -19 -2 -20 0 -10 13
10 13 10 14 1 8 -7 -4 -13 -4 -13 1 0 4 -14 9 -31 9 -17 1 -35 7 -40 15 -5 8
-9 11 -9 8 0 -4 -17 -3 -37 3 -21 5 -44 10 -50 10 -7 1 -13 5 -13 10 0 4 -22
8 -49 8 -28 0 -53 5 -56 11 -4 5 -12 8 -18 6 -7 -2 -21 0 -32 6 -11 6 -29 11
-40 11 -11 1 -19 6 -18 11 2 12 -89 11 -107 0 -5 -3 -10 -2 -10 3 0 10 -330 9
-347 -1 -6 -4 -14 -3 -17 2 -7 11 -43 3 -73 -16 -22 -15 -75 -23 -176 -28 -35
-2 -65 -9 -75 -18 -10 -9 -29 -18 -44 -21 -15 -2 -32 -7 -38 -11 -19 -12 -126
-6 -183 10 -29 8 -52 38 -42 55 3 6 2 10 -4 10 -6 0 -8 7 -5 15 4 8 11 15 18
15 6 0 11 14 10 33 0 17 3 37 6 42 4 6 14 31 24 57 9 26 27 59 39 74 12 16 22
33 23 39 0 5 2 18 2 28 1 10 7 15 12 12 6 -3 10 -3 11 2 3 32 11 59 19 61 6 2
10 17 10 32 0 16 5 32 10 35 6 3 10 15 10 26 0 10 3 19 8 19 4 0 13 9 20 21 8
12 9 18 3 15 -7 -5 -9 8 -6 36 4 41 11 80 15 86 3 3 5 11 14 55 8 35 25 52 27
25 0 -7 4 -4 8 7 4 11 6 36 4 55 -7 60 4 140 18 140 14 0 31 -41 27 -65 -3
-16 -1 -22 8 -18 7 2 13 12 13 21 0 9 1 26 2 37 3 35 -1 45 -17 45 -15 0 -16
9 -10 68 10 98 15 135 21 140 2 3 0 13 -6 23 -6 13 -6 19 1 19 5 0 9 5 8 11
-5 21 20 20 27 0 3 -12 13 -21 21 -21 13 0 18 -12 15 -33 0 -4 5 -6 11 -5 9 2
12 -7 10 -25 -2 -18 3 -29 13 -33 9 -4 23 -20 31 -36 9 -18 21 -28 29 -24 17
6 26 -18 20 -52 l-5 -27 11 25 10 25 22 -26 c13 -14 31 -24 44 -23 12 1 20 -3
17 -7 -3 -5 5 -9 16 -9 15 0 20 -5 17 -14 -4 -11 -1 -13 10 -9 11 4 14 3 9 -5
-7 -12 4 -20 39 -25 11 -1 26 -6 33 -10 6 -5 12 -5 12 -1 0 3 15 -5 34 -19 18
-15 36 -24 39 -21 3 3 16 0 29 -7 12 -7 36 -13 52 -14 17 -1 32 -7 34 -13 2
-7 8 -10 13 -7 5 3 30 -1 56 -10 36 -12 86 -16 203 -16 105 0 157 -4 162 -12
5 -8 13 -4 26 11 11 12 24 22 31 22 6 0 11 4 11 10 0 13 78 52 90 45 5 -3 19
6 32 20 12 14 30 25 40 25 10 0 18 5 18 10 0 6 4 10 9 10 6 0 22 11 37 25 14
13 30 23 34 22 4 -1 17 9 28 21 12 13 26 21 31 17 6 -3 11 1 11 10 0 8 11 21
25 27 14 6 25 18 25 26 0 13 3 12 19 -2 19 -17 19 -17 14 14 -2 18 -1 30 5 26
5 -3 15 6 22 20 8 13 19 23 25 21 6 -3 16 6 22 19 8 18 8 24 0 24 -7 0 2 12
18 28 16 15 32 26 35 25 3 -1 7 7 7 18 1 11 11 31 22 45 12 15 21 35 21 46 0
10 7 21 15 24 8 4 15 15 15 25 0 11 11 29 24 40 19 17 24 28 19 49 -3 15 0 31
6 34 6 4 11 18 11 31 0 34 10 55 27 55 9 0 14 9 13 23 -1 12 -1 24 0 27 3 7 8
48 15 110 3 30 11 75 18 100 8 31 11 138 11 350 -2 301 -4 345 -17 367 -9 15
-13 136 -4 149 4 7 0 17 -7 24 -8 6 -14 28 -14 49 0 21 -5 48 -11 59 -7 12 -8
22 -4 22 4 0 2 5 -4 11 -6 6 -9 18 -6 25 3 8 0 14 -6 14 -8 0 -9 5 -1 19 6 13
7 22 0 26 -5 3 -9 26 -8 50 1 44 8 52 42 46 5 -1 3 5 -4 14 -7 9 -19 14 -27
11 -8 -3 -13 2 -13 13 0 10 -7 24 -15 31 -9 7 -13 15 -11 18 3 2 -1 11 -9 19
-8 8 -15 26 -16 41 -1 15 -3 50 -6 77 -2 28 -5 58 -6 68 -1 10 -7 15 -14 13
-9 -4 -15 9 -20 37 -4 23 -6 46 -5 51 2 4 -1 13 -6 20 -5 6 -8 19 -7 29 2 9
-1 17 -7 17 -6 0 -4 7 3 17 9 11 10 14 2 10 -8 -5 -14 2 -18 20 -3 15 -10 40
-14 55 -5 15 -7 38 -4 49 4 14 2 20 -4 16 -19 -12 -33 19 -39 79 -2 32 -9 61
-15 65 -5 3 -9 10 -7 15 1 5 -3 18 -9 30 -7 12 -13 38 -15 58 -1 20 -5 36 -8
36 -6 0 -30 60 -30 74 0 5 7 6 15 2 8 -3 15 -1 15 5 0 5 -8 13 -17 16 -26 9
-29 16 -28 67 0 28 -5 46 -11 46 -18 0 -34 24 -36 54 -1 14 -7 26 -12 26 -5 0
-7 3 -4 6 4 3 -2 24 -12 47 -10 23 -16 45 -13 50 3 4 -3 17 -12 27 -9 10 -14
24 -10 29 3 6 1 11 -4 11 -17 0 -13 21 7 37 15 13 15 13 -5 4 -25 -12 -31 -6
-28 27 1 12 -2 22 -7 22 -4 0 -8 6 -8 14 0 8 -7 16 -15 20 -8 3 -15 16 -15 28
-2 70 -3 82 -7 71 -3 -7 -9 -13 -15 -13 -6 0 -8 7 -4 15 3 8 1 15 -5 15 -6 0
-9 6 -6 13 2 6 -3 17 -10 22 -8 6 -16 19 -18 30 -2 11 -4 22 -6 25 -4 9 -7 25
-8 48 0 13 -5 20 -11 17 -5 -3 -10 1 -10 9 0 9 -5 16 -10 16 -6 0 -9 3 -9 8 3
19 -2 33 -10 28 -5 -4 -12 7 -16 23 -3 16 -13 35 -21 42 -8 6 -14 23 -14 37 0
13 -7 30 -16 37 -14 10 -24 42 -27 92 0 7 -4 10 -8 7 -5 -2 -13 13 -19 35 -5
21 -16 41 -24 44 -9 4 -13 21 -11 55 1 40 -1 49 -12 45 -19 -7 -63 40 -63 67
0 12 -4 18 -10 15 -5 -3 -10 1 -10 9 0 19 -46 66 -57 57 -4 -3 -1 2 6 12 12
15 11 17 -4 17 -11 0 -15 5 -12 14 3 8 0 17 -7 19 -22 9 -55 74 -43 86 7 7 1
15 -21 28 -29 16 -49 46 -44 66 1 4 -2 7 -8 7 -5 0 -10 7 -10 15 0 8 -6 15
-14 15 -10 0 -13 9 -11 27 2 19 -4 32 -17 41 -10 8 -17 19 -16 24 2 6 -16 30
-39 55 -24 24 -41 48 -38 52 2 5 -2 14 -10 21 -8 7 -15 18 -15 25 0 7 -7 15
-15 19 -20 7 -20 56 0 56 9 0 12 6 9 15 -5 12 -10 12 -27 3 -12 -6 -19 -7 -15
-3 8 8 -35 35 -54 35 -13 0 -33 21 -41 43 -4 10 -11 15 -17 12 -6 -4 -13 7
-16 24 -4 20 -11 28 -20 24 -10 -4 -12 0 -7 13 4 12 3 15 -6 10 -15 -10 -43
12 -34 27 3 6 1 7 -5 3 -7 -4 -12 -2 -12 5 0 7 -3 9 -7 6 -10 -11 -33 13 -33
34 0 18 -18 24 -62 21 -10 -1 -18 3 -18 8 0 6 -7 10 -16 10 -10 0 -14 6 -11
14 4 10 1 13 -9 9 -8 -3 -14 1 -14 10 0 10 -8 15 -20 14 -11 -1 -20 -5 -20 -9
0 -4 -7 -5 -15 -2 -8 4 -15 17 -15 31 0 16 4 22 13 18 6 -4 5 -1 -3 7 -8 7
-16 18 -17 23 -7 31 -53 129 -64 136 -8 5 -10 9 -5 9 4 0 1 11 -8 24 -12 19
-14 42 -11 103 7 110 10 126 23 131 7 2 9 9 5 15 -9 14 -11 77 -2 77 7 0 6 30
-2 45 -5 9 -4 247 1 253 1 1 3 5 4 10 1 4 4 12 7 17 6 10 6 15 -5 63 -3 12 -1
22 4 22 4 0 7 8 5 18 -2 9 -4 17 -5 17 -1 0 -3 20 -5 45 -1 25 -3 47 -5 50 -1
3 -2 8 -1 13 1 10 -11 9 -29 -3 -10 -7 -12 -12 -4 -17 6 -5 10 -16 8 -25 -1
-10 3 -18 9 -18 6 0 4 -8 -6 -17 -9 -9 -19 -15 -22 -12 -5 6 -16 81 -16 112 0
9 -4 15 -9 12 -4 -3 -10 2 -13 9 -3 8 -1 17 6 19 9 3 7 13 -5 35 -10 16 -18
37 -18 46 0 9 -4 16 -10 16 -12 0 -13 27 -1 32 8 3 15 44 12 76 -1 6 -8 12
-16 12 -10 0 -14 9 -11 29 2 21 0 28 -10 24 -9 -3 -14 2 -14 15 0 11 -7 28
-15 36 -9 9 -15 21 -14 28 4 31 -2 40 -21 35 -13 -3 -20 0 -20 9 0 8 -4 14 -8
14 -14 0 -44 60 -38 76 3 8 2 13 -3 10 -5 -3 -19 11 -32 32 -24 38 -26 43 -28
66 0 7 -14 27 -30 43 -39 41 -52 68 -45 90 5 15 4 15 -5 3 -18 -25 -33 1 -17
31 12 24 12 25 -13 21 -16 -2 -33 4 -44 15 -40 41 -66 78 -58 83 14 9 31 47
24 54 -3 3 -15 6 -25 6 -11 0 -16 5 -13 10 3 6 1 10 -4 10 -6 0 -11 -7 -11
-15 0 -8 -6 -15 -12 -15 -21 0 -39 16 -36 31 2 8 -7 15 -20 17 -30 5 -145 119
-138 137 6 17 -10 30 -19 15 -9 -14 -35 -12 -35 3 0 12 -39 51 -50 51 -7 0
-26 16 -66 54 -19 19 -34 31 -34 28 0 -3 -9 3 -20 14 -12 12 -18 25 -15 30 3
5 1 11 -5 15 -5 3 -10 0 -11 -7 0 -7 -5 -1 -11 15 -5 15 -14 27 -19 27 -5 0
-9 9 -9 20 0 11 -5 20 -11 20 -5 0 -8 4 -5 8 3 5 -1 9 -9 9 -8 0 -15 -4 -15
-8 0 -4 -9 -7 -20 -6 -11 1 -20 7 -20 14 0 7 -9 17 -21 23 -11 7 -18 17 -16
25 3 7 -1 12 -11 11 -12 -1 -17 8 -19 29 -2 17 -3 36 -5 43 -2 18 -28 15 -28
-4 0 -8 4 -13 9 -10 5 3 11 -3 14 -13 7 -29 -28 -23 -64 11 -16 16 -29 25 -29
22 0 -4 -11 4 -24 18 -14 13 -37 30 -53 38 -15 8 -31 19 -35 25 -4 5 -8 6 -8
2 0 -4 -10 1 -22 13 -12 11 -30 20 -40 20 -10 0 -17 6 -15 12 1 8 -8 12 -25
10 -17 -2 -28 1 -28 9 0 17 -31 38 -56 39 -11 0 -24 3 -27 7 -4 3 -19 8 -34 9
-14 2 -30 9 -34 16 -5 7 -9 9 -9 5 0 -5 -13 1 -30 13 -16 12 -30 17 -30 12 0
-6 -9 -8 -20 -5 -11 3 -17 9 -14 14 3 5 -9 10 -25 10 -40 2 -42 2 -68 17 -13
7 -23 9 -23 5 0 -4 -6 1 -13 11 -7 10 -20 17 -28 16 -19 -3 -60 11 -55 19 2 3
-6 7 -17 8 -12 1 -29 4 -37 6 -8 3 -30 8 -47 12 -18 4 -30 11 -27 16 3 5 -1 7
-8 4 -12 -5 -101 10 -213 35 -94 21 -340 28 -545 16 -118 -8 -120 -8 -120 -15
0 -3 -15 -6 -32 -7 -18 -1 -71 -7 -118 -13 -47 -7 -92 -14 -100 -15 -9 -1 -21
-5 -27 -9 -6 -4 -13 -2 -15 4 -3 8 -9 6 -20 -4 -8 -9 -18 -13 -22 -10 -3 4
-16 2 -29 -4 -62 -30 -163 -57 -197 -54 -14 2 -22 -1 -17 -5 6 -7 -71 -53 -98
-58 -5 -1 -24 -10 -42 -19 -18 -9 -39 -17 -48 -17 -8 0 -15 -5 -15 -11 0 -5
-4 -7 -10 -4 -5 3 -10 1 -10 -4 0 -6 -7 -11 -15 -11 -8 0 -15 -5 -15 -11 0 -5
-4 -8 -9 -5 -9 6 -61 -17 -103 -46 -34 -23 -48 -23 -43 1 2 11 -3 22 -11 25
-9 3 -12 1 -9 -4 4 -6 0 -16 -8 -24 -11 -12 -19 -11 -50 3 -21 10 -34 21 -30
25 4 4 0 4 -10 0 -9 -3 -17 -2 -17 4 0 9 -36 25 -51 23 -4 0 -15 9 -24 19 -10
11 -28 20 -39 20 -12 0 -51 15 -88 34 -36 18 -76 36 -87 39 -12 3 -21 13 -21
22 0 9 5 13 10 10 6 -3 10 -2 10 3 0 5 -9 12 -20 15 -11 3 -20 1 -20 -3 0 -4
-10 -6 -22 -2 -14 3 -19 1 -14 -6 8 -14 -47 4 -81 25 -12 8 -26 15 -30 15 -4
0 -10 2 -13 5 -3 3 11 4 31 1 32 -3 35 -2 26 13 -9 14 -13 14 -36 3 -32 -17
-61 -18 -61 -2 0 6 -3 9 -6 5 -8 -8 -86 22 -100 39 -6 7 -16 14 -24 16 -7 2
-22 11 -32 21 -10 10 -23 15 -28 12 -6 -4 -10 1 -10 9 0 9 -5 16 -11 16 -5 0
-7 -4 -4 -10 14 -22 -7 -29 -40 -13 -19 9 -35 20 -35 23 0 4 -6 7 -12 8 -55 6
-76 10 -94 20 -12 6 -52 20 -90 31 -38 10 -81 24 -96 30 -16 6 -28 7 -28 4 0
-4 -5 -2 -12 5 -7 7 -24 12 -38 12 -15 0 -30 3 -33 6 -4 4 -28 9 -54 11 -27 2
-52 8 -58 14 -5 5 -21 9 -35 9 -15 0 -30 3 -34 7 -4 4 -21 8 -39 10 -18 1 -43
4 -57 6 -14 2 -61 10 -105 17 -44 8 -84 19 -90 25 -5 6 -28 12 -50 13 -22 0
-89 4 -150 7 -60 4 -134 7 -163 8 -34 2 -56 7 -62 17 -7 12 -13 12 -27 4 -16
-10 -39 -11 -155 -6 -26 1 -38 7 -38 17 0 11 10 13 40 10 22 -2 40 0 40 5 0 6
-29 10 -64 10 -56 0 -64 -2 -60 -17z m683 -4159 c17 11 14 -33 -4 -50 -8 -9
-18 -13 -23 -10 -8 4 -10 -5 -13 -64 -2 -19 -8 -30 -18 -30 -10 0 -12 -3 -4
-11 15 -15 4 -60 -16 -57 -9 2 -18 6 -21 10 -3 3 -20 8 -38 10 -18 2 -36 8
-40 13 -9 13 -62 16 -62 4 0 -5 -9 -1 -20 8 -23 20 -27 48 -6 40 10 -4 13 -1
10 8 -4 10 0 12 17 8 15 -4 20 -3 15 5 -4 7 -2 12 5 12 7 0 21 8 32 17 17 16
19 16 28 1 7 -13 13 -14 34 -5 14 7 23 18 20 25 -2 6 2 12 10 12 9 0 15 10 15
25 0 18 5 25 19 25 11 0 23 5 27 11 5 8 9 8 14 -1 4 -7 13 -9 19 -6z m-969
-1763 c9 -15 449 -37 460 -23 9 13 95 31 104 22 5 -5 4 -22 -2 -39 -6 -17 -8
-32 -4 -35 9 -5 8 -108 -1 -123 -4 -7 -4 -14 1 -17 8 -4 7 -19 -3 -101 -2 -16
-4 -34 -4 -39 -1 -4 -7 -6 -13 -3 -10 3 -13 -22 -14 -107 -2 -106 -10 -251
-20 -326 -5 -46 -5 -85 2 -644 5 -378 4 -477 -6 -471 -7 4 -5 -3 4 -17 9 -14
13 -28 9 -31 -3 -4 -2 -7 3 -7 6 0 8 -16 6 -35 -3 -27 -1 -35 12 -35 9 0 16
-3 17 -7 10 -128 18 -160 42 -187 15 -18 22 -37 18 -58 0 -5 3 -8 7 -8 9 0 10
-7 13 -55 1 -13 5 -22 10 -19 5 3 9 -5 9 -16 0 -15 5 -20 15 -17 9 4 18 -5 27
-28 6 -19 18 -35 24 -35 7 0 16 -5 20 -12 4 -6 3 -8 -3 -5 -12 8 -24 -26 -14
-39 3 -5 17 -9 31 -9 22 0 25 -4 22 -29 -2 -16 2 -32 8 -36 7 -4 14 -31 17
-60 l5 -52 -39 6 c-21 3 -39 5 -40 6 -2 0 -3 9 -3 19 0 11 -5 23 -10 26 -8 5
-8 11 0 20 8 10 8 15 -1 21 -7 4 -9 3 -5 -4 3 -6 2 -14 -4 -17 -8 -5 -7 -11 1
-22 11 -13 6 -14 -42 -12 -30 1 -60 7 -67 12 -10 8 -19 7 -32 -1 -15 -9 -19
-8 -24 5 -4 9 -9 13 -12 10 -4 -3 -28 3 -55 13 -27 11 -55 17 -64 14 -8 -4
-15 -1 -15 5 0 6 -13 11 -29 11 -17 0 -33 5 -36 10 -3 6 -17 10 -30 10 -13 0
-27 5 -30 10 -4 6 -11 8 -16 5 -5 -4 -12 1 -15 10 -5 12 -10 13 -20 5 -9 -8
-18 -8 -34 0 -11 6 -25 8 -31 4 -6 -4 -14 -2 -18 4 -3 5 -17 12 -31 13 -14 2
-28 8 -31 12 -3 5 -15 10 -25 12 -10 2 -20 4 -21 5 -3 2 -19 5 -54 9 -6 0 -9
8 -5 16 4 12 -4 15 -40 15 -30 0 -43 4 -38 11 5 8 1 8 -14 0 -25 -13 -69 -14
-76 -2 -4 5 0 12 6 14 7 3 -2 3 -19 0 -19 -3 -33 -1 -33 4 0 5 -16 10 -35 11
-20 1 -41 5 -48 9 -7 4 -23 9 -37 10 -43 6 -67 23 -65 48 3 19 -1 22 -30 21
-18 0 -31 -4 -29 -7 2 -4 -8 -9 -21 -12 -14 -2 -28 0 -31 5 -3 4 -10 6 -15 3
-5 -4 -9 -1 -9 5 0 6 -3 9 -8 6 -14 -8 -74 23 -66 35 4 8 3 9 -4 5 -7 -4 -12
-2 -12 4 0 6 -4 9 -9 6 -5 -3 -12 1 -15 10 -3 8 -10 12 -16 9 -6 -4 -8 -10 -5
-15 3 -4 -13 -3 -35 2 -22 6 -40 14 -40 19 0 5 -3 8 -7 7 -5 -1 -19 4 -33 12
-14 7 -38 15 -54 17 -17 2 -33 9 -37 15 -4 6 -16 12 -26 13 -43 4 -93 17 -93
24 0 8 -24 19 -65 27 -10 3 -22 8 -25 12 -3 4 -18 7 -35 7 -17 0 -51 14 -80
32 -27 18 -55 33 -62 33 -7 0 -13 5 -13 12 0 9 -3 9 -12 0 -7 -7 -17 -8 -27
-3 -9 5 -19 9 -24 10 -4 0 -31 13 -60 28 -28 15 -56 28 -62 29 -20 4 -65 31
-59 36 2 3 -3 5 -13 5 -27 0 -63 14 -63 25 0 5 -6 8 -12 7 -25 -4 -68 13 -68
28 0 10 -6 12 -20 8 -11 -4 -20 -2 -20 4 0 6 -7 11 -15 11 -8 0 -15 4 -15 9 0
5 -12 9 -26 9 -15 0 -32 8 -40 21 -9 12 -19 19 -23 17 -14 -9 -96 15 -116 34
-11 10 -23 18 -27 17 -4 -1 -16 6 -28 15 -13 12 -20 14 -21 5 0 -9 -2 -9 -6 1
-2 6 -9 12 -15 12 -14 0 -38 26 -31 34 4 3 1 6 -6 6 -7 0 -9 5 -6 10 4 6 3 10
-2 9 -15 -4 -64 24 -60 35 2 6 -2 17 -10 24 -7 8 -11 18 -8 23 4 5 1 9 -4 9
-6 0 -11 6 -11 14 0 7 -6 19 -14 26 -8 6 -13 17 -11 23 3 7 10 26 16 42 7 17
14 39 16 50 2 10 8 22 14 26 8 5 8 9 0 14 -9 5 -9 11 1 23 8 10 9 13 1 9 -7
-4 -5 6 5 25 9 18 17 40 17 48 1 8 2 28 3 43 1 18 6 26 13 21 8 -5 9 -2 1 12
-7 12 -7 26 0 43 5 15 11 34 14 44 2 11 12 27 23 36 12 11 17 21 11 27 -5 5
-1 25 10 49 24 53 34 105 21 105 -6 0 -6 11 1 33 5 17 16 61 24 97 8 35 19 69
24 74 4 4 6 14 4 21 -3 7 -1 16 5 20 6 3 11 16 11 28 0 12 9 28 19 34 13 8 18
19 14 34 -5 19 -3 21 19 17 19 -4 24 -1 21 11 -2 9 4 34 14 56 9 22 18 47 18
55 0 8 6 15 14 15 8 0 16 8 18 18 6 34 9 43 26 75 10 18 15 37 12 42 -10 16
81 100 109 100 22 0 26 5 26 29 0 41 21 53 98 57 37 2 78 7 92 11 14 3 33 7
43 8 9 2 18 3 20 5 11 9 37 6 37 -5 0 -10 7 -12 29 -5 16 4 32 6 35 2 3 -3 6
0 6 5 0 6 8 10 18 8 9 -1 23 2 30 8 6 5 12 6 12 1 0 -11 141 -9 149 3 10 14
143 15 153 1 5 -9 8 -9 8 -2 0 7 26 15 58 20 87 12 334 12 354 0 12 -7 27 -7
50 1 18 6 73 12 123 13 49 0 91 3 93 4 7 8 287 -5 292 -13z"/>
<path d="M5540 9830 c0 -5 14 -10 32 -10 36 0 35 4 -4 14 -17 4 -28 2 -28 -4z"/>
<path d="M5810 9818 c0 -9 36 -5 46 5 4 4 -5 6 -19 5 -15 -1 -27 -6 -27 -10z"/>
<path d="M3270 8675 c0 -8 2 -15 4 -15 2 0 6 7 10 15 3 8 1 15 -4 15 -6 0 -10
-7 -10 -15z"/>
<path d="M5960 7582 c6 -13 14 -21 18 -18 3 4 -2 14 -12 24 -18 16 -18 16 -6
-6z"/>
<path d="M6106 15782 c-2 -4 4 -8 14 -8 10 0 16 4 14 8 -3 4 -9 8 -14 8 -5 0
-11 -4 -14 -8z"/>
<path d="M6170 15779 c0 -5 5 -7 10 -4 6 3 10 8 10 11 0 2 -4 4 -10 4 -5 0
-10 -5 -10 -11z"/>
<path d="M6215 15780 c-3 -5 -1 -10 4 -10 6 0 11 5 11 10 0 6 -2 10 -4 10 -3
0 -8 -4 -11 -10z"/>
<path d="M4942 15744 c4 -21 22 -23 26 -1 2 10 -3 17 -13 17 -10 0 -15 -6 -13
-16z"/>
<path d="M6638 15703 c7 -3 16 -2 19 1 4 3 -2 6 -13 5 -11 0 -14 -3 -6 -6z"/>
<path d="M7035 15650 c-4 -6 5 -10 20 -10 15 0 24 4 20 10 -3 6 -12 10 -20 10
-8 0 -17 -4 -20 -10z"/>
<path d="M4606 15572 c-3 -5 1 -9 9 -9 8 0 12 4 9 9 -3 4 -7 8 -9 8 -2 0 -6
-4 -9 -8z"/>
<path d="M7140 15571 c0 -5 7 -12 16 -15 14 -5 15 -4 4 9 -14 17 -20 19 -20 6z"/>
<path d="M7560 15420 c0 -5 7 -10 16 -10 8 0 12 5 9 10 -3 6 -10 10 -16 10 -5
0 -9 -4 -9 -10z"/>
<path d="M4047 15143 c-12 -12 -7 -22 8 -17 8 4 15 10 15 15 0 11 -14 12 -23
2z"/>
<path d="M3850 14855 c0 -8 2 -15 4 -15 2 0 6 7 10 15 3 8 1 15 -4 15 -6 0
-10 -7 -10 -15z"/>
<path d="M11451 14714 c0 -11 3 -14 6 -6 3 7 2 16 -1 19 -3 4 -6 -2 -5 -13z"/>
<path d="M3710 14616 c0 -30 5 -46 15 -50 9 -3 15 0 15 9 0 8 -4 15 -8 15 -5
0 -8 16 -7 35 1 19 -2 35 -6 35 -5 0 -9 -20 -9 -44z"/>
<path d="M3735 14347 c-4 -10 -5 -21 -1 -24 10 -10 18 4 13 24 -4 17 -4 17
-12 0z"/>
<path d="M11810 14300 c0 -5 5 -10 10 -10 6 0 10 5 10 10 0 6 -4 10 -10 10 -5
0 -10 -4 -10 -10z"/>
<path d="M11840 14240 c0 -5 5 -10 11 -10 5 0 7 5 4 10 -3 6 -8 10 -11 10 -2
0 -4 -4 -4 -10z"/>
<path d="M3889 13928 c-7 -26 -5 -35 10 -33 9 2 19 4 23 4 13 2 -4 31 -18 31
-8 0 -14 -1 -15 -2z"/>
<path d="M4140 13660 c8 -5 20 -10 25 -10 6 0 3 5 -5 10 -8 5 -19 10 -25 10
-5 0 -3 -5 5 -10z"/>
<path d="M4270 13535 c0 -17 2 -18 24 -9 23 9 20 24 -4 24 -11 0 -20 -7 -20
-15z"/>
<path d="M4346 13493 c-6 -14 -5 -15 5 -6 7 7 10 15 7 18 -3 3 -9 -2 -12 -12z"/>
<path d="M12251 13491 c-8 -5 -9 -11 -3 -15 5 -3 15 1 22 9 14 16 3 20 -19 6z"/>
<path d="M12276 13207 c3 -10 9 -15 12 -12 3 3 0 11 -7 18 -10 9 -11 8 -5 -6z"/>
<path d="M12269 12813 c-1 -10 -1 -26 0 -35 1 -10 -1 -18 -6 -18 -4 0 -8 -11
-8 -24 0 -15 5 -22 13 -19 11 5 19 113 7 113 -3 0 -6 -8 -6 -17z"/>
<path d="M12240 12660 c0 -5 5 -10 10 -10 6 0 10 5 10 10 0 6 -4 10 -10 10 -5
0 -10 -4 -10 -10z"/>
<path d="M12236 12624 c-8 -22 -1 -28 21 -19 12 5 14 9 5 12 -6 3 -10 9 -6 14
3 5 1 9 -4 9 -6 0 -13 -7 -16 -16z"/>
<path d="M12270 12481 c0 -6 5 -13 10 -16 6 -3 10 1 10 9 0 9 -4 16 -10 16 -5
0 -10 -4 -10 -9z"/>
<path d="M12690 12060 c0 -5 5 -10 11 -10 5 0 7 5 4 10 -3 6 -8 10 -11 10 -2
0 -4 -4 -4 -10z"/>
<path d="M2165 11570 c-3 -5 1 -10 9 -10 9 0 16 5 16 10 0 6 -4 10 -9 10 -6 0
-13 -4 -16 -10z"/>
<path d="M13100 11440 c0 -6 7 -10 15 -10 8 0 15 2 15 4 0 2 -7 6 -15 10 -8 3
-15 1 -15 -4z"/>
<path d="M1175 9860 c-3 -5 -1 -10 4 -10 6 0 11 5 11 10 0 6 -2 10 -4 10 -3 0
-8 -4 -11 -10z"/>
<path d="M1181 9818 c-1 -21 3 -26 15 -21 9 3 11 9 6 12 -5 3 -12 13 -15 21
-3 9 -6 4 -6 -12z"/>
<path d="M14090 7539 c0 -5 5 -7 10 -4 6 3 10 8 10 11 0 2 -4 4 -10 4 -5 0
-10 -5 -10 -11z"/>
<path d="M13910 7120 c0 -5 14 -10 30 -10 17 0 30 5 30 10 0 6 -13 10 -30 10
-16 0 -30 -4 -30 -10z"/>
<path d="M1085 6870 c3 -5 11 -10 16 -10 6 0 7 5 4 10 -3 6 -11 10 -16 10 -6
0 -7 -4 -4 -10z"/>
<path d="M12285 6870 c3 -5 8 -10 11 -10 2 0 4 5 4 10 0 6 -5 10 -11 10 -5 0
-7 -4 -4 -10z"/>
<path d="M12214 6694 c3 -9 6 -18 6 -20 0 -13 19 -1 23 16 4 15 0 20 -15 20
-14 0 -18 -5 -14 -16z"/>
<path d="M12136 6275 c-9 -26 -7 -32 5 -12 6 10 9 21 6 23 -2 3 -7 -2 -11 -11z"/>
<path d="M12950 6006 c0 -2 7 -7 16 -10 8 -3 12 -2 9 4 -6 10 -25 14 -25 6z"/>
<path d="M11985 5860 c3 -5 11 -10 16 -10 6 0 7 5 4 10 -3 6 -11 10 -16 10 -6
0 -7 -4 -4 -10z"/>
<path d="M13830 5581 c0 -6 5 -13 10 -16 6 -3 10 -1 10 5 0 6 5 8 12 4 7 -4 8
-3 4 4 -9 14 -36 16 -36 3z"/>
<path d="M5235 5230 c-3 -5 -1 -10 4 -10 6 0 11 5 11 10 0 6 -2 10 -4 10 -3 0
-8 -4 -11 -10z"/>
<path d="M6245 4910 c-3 -5 -1 -10 4 -10 6 0 11 5 11 10 0 6 -2 10 -4 10 -3 0
-8 -4 -11 -10z"/>
<path d="M14626 4454 c-20 -20 -20 -24 2 -24 11 0 18 7 18 20 0 24 0 24 -20 4z"/>
<path d="M14612 4383 c0 -5 -2 -16 -6 -25 -5 -10 -5 -26 -1 -35 5 -15 7 -16
14 -3 5 8 11 27 15 43 5 20 3 27 -9 27 -8 0 -14 -3 -13 -7z"/>
<path d="M14805 3938 c-6 -18 -8 -38 -6 -67 2 -40 13 -15 16 34 2 45 -2 57
-10 33z"/>
<path d="M6525 3890 c3 -5 8 -10 11 -10 2 0 4 5 4 10 0 6 -5 10 -11 10 -5 0
-7 -4 -4 -10z"/>
<path d="M14960 2910 c0 -6 7 -10 15 -10 8 0 15 2 15 4 0 2 -7 6 -15 10 -8 3
-15 1 -15 -4z"/>
<path d="M6250 2900 c-9 -6 -10 -10 -3 -10 6 0 15 5 18 10 8 12 4 12 -15 0z"/>
<path d="M6090 2620 c0 -5 7 -7 15 -4 8 4 15 8 15 10 0 2 -7 4 -15 4 -8 0 -15
-4 -15 -10z"/>
<path d="M15048 2618 c-2 -7 -3 -33 -2 -58 3 -59 3 -60 12 -60 4 0 9 29 10 65
2 37 -1 65 -6 65 -6 0 -12 -6 -14 -12z"/>
<path d="M5737 1363 c-3 -5 -2 -15 2 -22 7 -10 10 -10 16 -1 4 6 3 16 -3 22
-5 5 -12 6 -15 1z"/>
<path d="M15180 1110 c0 -5 5 -10 11 -10 5 0 7 5 4 10 -3 6 -8 10 -11 10 -2 0
-4 -4 -4 -10z"/>
</g>
</svg>
